<mxfile host="Electron" agent="Mozilla/5.0 (Windows NT 10.0; Win64; x64) AppleWebKit/537.36 (KHTML, like Gecko) draw.io/28.2.8 Chrome/140.0.7339.240 Electron/38.4.0 Safari/537.36" version="28.2.8">
  <diagram name="PÃ¡gina-1" id="nKrDaRrzaPTp6Cf_arq2">
    <mxGraphModel dx="3360" dy="3851" grid="1" gridSize="10" guides="1" tooltips="1" connect="1" arrows="1" fold="1" page="1" pageScale="1" pageWidth="1920" pageHeight="1200" math="0" shadow="0">
      <root>
        <mxCell id="0" />
        <mxCell id="1" parent="0" />
        <mxCell id="JUWItfmvDYJj0HIBvMP_-1" value="&lt;b&gt;&lt;font style=&quot;font-size: 35px;&quot;&gt;DATA FLOW DIAGRAM&lt;/font&gt;&lt;/b&gt;" style="text;html=1;align=center;verticalAlign=middle;whiteSpace=wrap;rounded=0;" parent="1" vertex="1">
          <mxGeometry x="-20" y="-2350" width="400" height="40" as="geometry" />
        </mxCell>
        <mxCell id="JUWItfmvDYJj0HIBvMP_-2" value="" style="rounded=0;whiteSpace=wrap;html=1;fillColor=none;" parent="1" vertex="1">
          <mxGeometry y="-2230" width="180" height="600" as="geometry" />
        </mxCell>
        <mxCell id="JUWItfmvDYJj0HIBvMP_-3" value="&lt;font style=&quot;font-size: 24px;&quot;&gt;Source&lt;/font&gt;" style="rounded=0;whiteSpace=wrap;html=1;strokeColor=none;fillColor=default;" parent="1" vertex="1">
          <mxGeometry x="30" y="-2270" width="120" height="60" as="geometry" />
        </mxCell>
        <mxCell id="JUWItfmvDYJj0HIBvMP_-17" style="edgeStyle=orthogonalEdgeStyle;rounded=0;orthogonalLoop=1;jettySize=auto;html=1;entryX=0;entryY=0.5;entryDx=0;entryDy=0;" parent="1" source="JUWItfmvDYJj0HIBvMP_-4" target="JUWItfmvDYJj0HIBvMP_-14" edge="1">
          <mxGeometry relative="1" as="geometry" />
        </mxCell>
        <mxCell id="JUWItfmvDYJj0HIBvMP_-18" style="edgeStyle=orthogonalEdgeStyle;rounded=0;orthogonalLoop=1;jettySize=auto;html=1;entryX=0;entryY=0.5;entryDx=0;entryDy=0;" parent="1" source="JUWItfmvDYJj0HIBvMP_-4" target="JUWItfmvDYJj0HIBvMP_-15" edge="1">
          <mxGeometry relative="1" as="geometry" />
        </mxCell>
        <mxCell id="JUWItfmvDYJj0HIBvMP_-19" style="edgeStyle=orthogonalEdgeStyle;rounded=0;orthogonalLoop=1;jettySize=auto;html=1;entryX=0;entryY=0.5;entryDx=0;entryDy=0;" parent="1" source="JUWItfmvDYJj0HIBvMP_-4" target="JUWItfmvDYJj0HIBvMP_-13" edge="1">
          <mxGeometry relative="1" as="geometry" />
        </mxCell>
        <mxCell id="JUWItfmvDYJj0HIBvMP_-4" value="&lt;b&gt;CRM&lt;/b&gt;" style="image;aspect=fixed;html=1;points=[];align=center;fontSize=12;image=img/lib/azure2/general/Folder_Blank.svg;" parent="1" vertex="1">
          <mxGeometry x="55.5" y="-2078" width="69" height="56.00000000000001" as="geometry" />
        </mxCell>
        <mxCell id="JUWItfmvDYJj0HIBvMP_-23" style="edgeStyle=orthogonalEdgeStyle;rounded=0;orthogonalLoop=1;jettySize=auto;html=1;entryX=0;entryY=0.5;entryDx=0;entryDy=0;" parent="1" source="JUWItfmvDYJj0HIBvMP_-5" target="JUWItfmvDYJj0HIBvMP_-20" edge="1">
          <mxGeometry relative="1" as="geometry" />
        </mxCell>
        <mxCell id="JUWItfmvDYJj0HIBvMP_-24" style="edgeStyle=orthogonalEdgeStyle;rounded=0;orthogonalLoop=1;jettySize=auto;html=1;entryX=0;entryY=0.5;entryDx=0;entryDy=0;" parent="1" source="JUWItfmvDYJj0HIBvMP_-5" target="JUWItfmvDYJj0HIBvMP_-21" edge="1">
          <mxGeometry relative="1" as="geometry" />
        </mxCell>
        <mxCell id="JUWItfmvDYJj0HIBvMP_-25" style="edgeStyle=orthogonalEdgeStyle;rounded=0;orthogonalLoop=1;jettySize=auto;html=1;entryX=0;entryY=0.5;entryDx=0;entryDy=0;" parent="1" source="JUWItfmvDYJj0HIBvMP_-5" target="JUWItfmvDYJj0HIBvMP_-22" edge="1">
          <mxGeometry relative="1" as="geometry" />
        </mxCell>
        <mxCell id="JUWItfmvDYJj0HIBvMP_-5" value="&lt;b&gt;ERP&lt;/b&gt;" style="image;aspect=fixed;html=1;points=[];align=center;fontSize=12;image=img/lib/azure2/general/Folder_Blank.svg;" parent="1" vertex="1">
          <mxGeometry x="55.5" y="-1868" width="69" height="56.00000000000001" as="geometry" />
        </mxCell>
        <mxCell id="JUWItfmvDYJj0HIBvMP_-11" value="" style="rounded=1;whiteSpace=wrap;html=1;fillColor=none;fontColor=#ffffff;strokeColor=#6D1F00;" parent="1" vertex="1">
          <mxGeometry x="230" y="-2200" width="210" height="560" as="geometry" />
        </mxCell>
        <mxCell id="JUWItfmvDYJj0HIBvMP_-12" value="&lt;font style=&quot;font-size: 20px;&quot;&gt;Bronze Layer&lt;/font&gt;" style="rounded=1;whiteSpace=wrap;html=1;strokeColor=#6D1F00;fillColor=#a0522d;fontColor=#ffffff;" parent="1" vertex="1">
          <mxGeometry x="267.5" y="-2250" width="135" height="60" as="geometry" />
        </mxCell>
        <mxCell id="TBy05d4kuxibRL_ISMqA-9" style="edgeStyle=orthogonalEdgeStyle;rounded=0;orthogonalLoop=1;jettySize=auto;html=1;" parent="1" source="JUWItfmvDYJj0HIBvMP_-13" target="TBy05d4kuxibRL_ISMqA-3" edge="1">
          <mxGeometry relative="1" as="geometry" />
        </mxCell>
        <mxCell id="JUWItfmvDYJj0HIBvMP_-13" value="&lt;font style=&quot;font-size: 16px;&quot;&gt;crm_sales_details&lt;/font&gt;" style="rounded=1;whiteSpace=wrap;html=1;strokeColor=#6D1F00;fillColor=#a0522d;fontColor=#ffffff;" parent="1" vertex="1">
          <mxGeometry x="267.5" y="-2140" width="132.5" height="40" as="geometry" />
        </mxCell>
        <mxCell id="TBy05d4kuxibRL_ISMqA-10" style="edgeStyle=orthogonalEdgeStyle;rounded=0;orthogonalLoop=1;jettySize=auto;html=1;" parent="1" source="JUWItfmvDYJj0HIBvMP_-14" target="TBy05d4kuxibRL_ISMqA-4" edge="1">
          <mxGeometry relative="1" as="geometry" />
        </mxCell>
        <mxCell id="JUWItfmvDYJj0HIBvMP_-14" value="&lt;font style=&quot;font-size: 16px;&quot;&gt;crm_cust_info&lt;/font&gt;" style="rounded=1;whiteSpace=wrap;html=1;strokeColor=#6D1F00;fillColor=#a0522d;fontColor=#ffffff;" parent="1" vertex="1">
          <mxGeometry x="267.5" y="-2070" width="132.5" height="40" as="geometry" />
        </mxCell>
        <mxCell id="TBy05d4kuxibRL_ISMqA-11" style="edgeStyle=orthogonalEdgeStyle;rounded=0;orthogonalLoop=1;jettySize=auto;html=1;entryX=0;entryY=0.5;entryDx=0;entryDy=0;" parent="1" source="JUWItfmvDYJj0HIBvMP_-15" target="TBy05d4kuxibRL_ISMqA-5" edge="1">
          <mxGeometry relative="1" as="geometry" />
        </mxCell>
        <mxCell id="JUWItfmvDYJj0HIBvMP_-15" value="&lt;font style=&quot;font-size: 16px;&quot;&gt;crm_prd_info&lt;/font&gt;" style="rounded=1;whiteSpace=wrap;html=1;strokeColor=#6D1F00;fillColor=#a0522d;fontColor=#ffffff;" parent="1" vertex="1">
          <mxGeometry x="270" y="-2000" width="130" height="40" as="geometry" />
        </mxCell>
        <mxCell id="TBy05d4kuxibRL_ISMqA-12" style="edgeStyle=orthogonalEdgeStyle;rounded=0;orthogonalLoop=1;jettySize=auto;html=1;" parent="1" source="JUWItfmvDYJj0HIBvMP_-20" target="TBy05d4kuxibRL_ISMqA-6" edge="1">
          <mxGeometry relative="1" as="geometry" />
        </mxCell>
        <mxCell id="JUWItfmvDYJj0HIBvMP_-20" value="&lt;font style=&quot;font-size: 16px;&quot;&gt;erp_cust_AZ12&lt;/font&gt;" style="rounded=1;whiteSpace=wrap;html=1;strokeColor=#6D1F00;fillColor=#a0522d;fontColor=#ffffff;" parent="1" vertex="1">
          <mxGeometry x="267.5" y="-1930" width="132.5" height="40" as="geometry" />
        </mxCell>
        <mxCell id="TBy05d4kuxibRL_ISMqA-13" style="edgeStyle=orthogonalEdgeStyle;rounded=0;orthogonalLoop=1;jettySize=auto;html=1;" parent="1" source="JUWItfmvDYJj0HIBvMP_-21" target="TBy05d4kuxibRL_ISMqA-7" edge="1">
          <mxGeometry relative="1" as="geometry" />
        </mxCell>
        <mxCell id="JUWItfmvDYJj0HIBvMP_-21" value="&lt;font style=&quot;font-size: 16px;&quot;&gt;erp_loc_a101&lt;/font&gt;" style="rounded=1;whiteSpace=wrap;html=1;strokeColor=#6D1F00;fillColor=#a0522d;fontColor=#ffffff;" parent="1" vertex="1">
          <mxGeometry x="267.5" y="-1860" width="132.5" height="40" as="geometry" />
        </mxCell>
        <mxCell id="TBy05d4kuxibRL_ISMqA-14" style="edgeStyle=orthogonalEdgeStyle;rounded=0;orthogonalLoop=1;jettySize=auto;html=1;" parent="1" source="JUWItfmvDYJj0HIBvMP_-22" target="TBy05d4kuxibRL_ISMqA-8" edge="1">
          <mxGeometry relative="1" as="geometry" />
        </mxCell>
        <mxCell id="JUWItfmvDYJj0HIBvMP_-22" value="&lt;font style=&quot;font-size: 16px;&quot;&gt;erp_px_cat_g1v2&lt;/font&gt;" style="rounded=1;whiteSpace=wrap;html=1;strokeColor=#6D1F00;fillColor=#a0522d;fontColor=#ffffff;" parent="1" vertex="1">
          <mxGeometry x="270" y="-1790" width="130" height="40" as="geometry" />
        </mxCell>
        <mxCell id="TBy05d4kuxibRL_ISMqA-1" value="" style="rounded=1;whiteSpace=wrap;html=1;fillColor=none;strokeColor=#666666;fontColor=#333333;" parent="1" vertex="1">
          <mxGeometry x="550" y="-2200" width="210" height="560" as="geometry" />
        </mxCell>
        <mxCell id="TBy05d4kuxibRL_ISMqA-2" value="&lt;font style=&quot;font-size: 20px;&quot;&gt;Silver Layer&lt;/font&gt;" style="rounded=1;whiteSpace=wrap;html=1;strokeColor=#666666;fillColor=#f5f5f5;fontColor=#333333;" parent="1" vertex="1">
          <mxGeometry x="587.5" y="-2250" width="135" height="60" as="geometry" />
        </mxCell>
        <mxCell id="IdcQIrkCeU1JgMRtuE7g-9" style="edgeStyle=orthogonalEdgeStyle;rounded=0;orthogonalLoop=1;jettySize=auto;html=1;exitX=1;exitY=0.5;exitDx=0;exitDy=0;entryX=0;entryY=0.5;entryDx=0;entryDy=0;" edge="1" parent="1" source="TBy05d4kuxibRL_ISMqA-3" target="IdcQIrkCeU1JgMRtuE7g-3">
          <mxGeometry relative="1" as="geometry" />
        </mxCell>
        <mxCell id="TBy05d4kuxibRL_ISMqA-3" value="&lt;font style=&quot;font-size: 16px;&quot;&gt;crm_sales_details&lt;/font&gt;" style="rounded=1;whiteSpace=wrap;html=1;strokeColor=#666666;fillColor=#f5f5f5;fontColor=#333333;" parent="1" vertex="1">
          <mxGeometry x="587.5" y="-2140" width="132.5" height="40" as="geometry" />
        </mxCell>
        <mxCell id="IdcQIrkCeU1JgMRtuE7g-10" style="rounded=0;orthogonalLoop=1;jettySize=auto;html=1;exitX=1;exitY=0.5;exitDx=0;exitDy=0;entryX=0;entryY=0.5;entryDx=0;entryDy=0;jumpStyle=gap;" edge="1" parent="1" source="TBy05d4kuxibRL_ISMqA-4" target="IdcQIrkCeU1JgMRtuE7g-4">
          <mxGeometry relative="1" as="geometry" />
        </mxCell>
        <mxCell id="TBy05d4kuxibRL_ISMqA-4" value="&lt;font style=&quot;font-size: 16px;&quot;&gt;crm_cust_info&lt;/font&gt;" style="rounded=1;whiteSpace=wrap;html=1;strokeColor=#666666;fillColor=#f5f5f5;fontColor=#333333;" parent="1" vertex="1">
          <mxGeometry x="587.5" y="-2070" width="132.5" height="40" as="geometry" />
        </mxCell>
        <mxCell id="IdcQIrkCeU1JgMRtuE7g-13" style="rounded=0;orthogonalLoop=1;jettySize=auto;html=1;entryX=0;entryY=0.5;entryDx=0;entryDy=0;jumpStyle=gap;" edge="1" parent="1" source="TBy05d4kuxibRL_ISMqA-5" target="IdcQIrkCeU1JgMRtuE7g-5">
          <mxGeometry relative="1" as="geometry" />
        </mxCell>
        <mxCell id="TBy05d4kuxibRL_ISMqA-5" value="&lt;font style=&quot;font-size: 16px;&quot;&gt;crm_prd_info&lt;/font&gt;" style="rounded=1;whiteSpace=wrap;html=1;strokeColor=#666666;fillColor=#f5f5f5;fontColor=#333333;" parent="1" vertex="1">
          <mxGeometry x="590" y="-2000" width="130" height="40" as="geometry" />
        </mxCell>
        <mxCell id="IdcQIrkCeU1JgMRtuE7g-11" style="rounded=0;orthogonalLoop=1;jettySize=auto;html=1;entryX=0;entryY=0.5;entryDx=0;entryDy=0;jumpStyle=gap;" edge="1" parent="1" source="TBy05d4kuxibRL_ISMqA-6" target="IdcQIrkCeU1JgMRtuE7g-4">
          <mxGeometry relative="1" as="geometry" />
        </mxCell>
        <mxCell id="TBy05d4kuxibRL_ISMqA-6" value="&lt;font style=&quot;font-size: 16px;&quot;&gt;erp_cust_AZ12&lt;/font&gt;" style="rounded=1;whiteSpace=wrap;html=1;strokeColor=#666666;fillColor=#f5f5f5;fontColor=#333333;" parent="1" vertex="1">
          <mxGeometry x="587.5" y="-1930" width="132.5" height="40" as="geometry" />
        </mxCell>
        <mxCell id="IdcQIrkCeU1JgMRtuE7g-12" style="rounded=0;orthogonalLoop=1;jettySize=auto;html=1;entryX=0;entryY=0.5;entryDx=0;entryDy=0;jumpStyle=gap;" edge="1" parent="1" source="TBy05d4kuxibRL_ISMqA-7" target="IdcQIrkCeU1JgMRtuE7g-4">
          <mxGeometry relative="1" as="geometry">
            <mxPoint x="870" y="-1990" as="targetPoint" />
          </mxGeometry>
        </mxCell>
        <mxCell id="TBy05d4kuxibRL_ISMqA-7" value="&lt;font style=&quot;font-size: 16px;&quot;&gt;erp_loc_a101&lt;/font&gt;" style="rounded=1;whiteSpace=wrap;html=1;strokeColor=#666666;fillColor=#f5f5f5;fontColor=#333333;" parent="1" vertex="1">
          <mxGeometry x="587.5" y="-1860" width="132.5" height="40" as="geometry" />
        </mxCell>
        <mxCell id="IdcQIrkCeU1JgMRtuE7g-14" style="rounded=0;orthogonalLoop=1;jettySize=auto;html=1;entryX=0;entryY=0.5;entryDx=0;entryDy=0;jumpStyle=gap;" edge="1" parent="1" source="TBy05d4kuxibRL_ISMqA-8" target="IdcQIrkCeU1JgMRtuE7g-5">
          <mxGeometry relative="1" as="geometry" />
        </mxCell>
        <mxCell id="TBy05d4kuxibRL_ISMqA-8" value="&lt;font style=&quot;font-size: 16px;&quot;&gt;erp_px_cat_g1v2&lt;/font&gt;" style="rounded=1;whiteSpace=wrap;html=1;strokeColor=#666666;fillColor=#f5f5f5;fontColor=#333333;" parent="1" vertex="1">
          <mxGeometry x="590" y="-1790" width="130" height="40" as="geometry" />
        </mxCell>
        <mxCell id="IdcQIrkCeU1JgMRtuE7g-1" value="" style="rounded=1;whiteSpace=wrap;html=1;fillColor=none;strokeColor=#d79b00;gradientColor=#ffa500;" vertex="1" parent="1">
          <mxGeometry x="890" y="-2200" width="210" height="560" as="geometry" />
        </mxCell>
        <mxCell id="IdcQIrkCeU1JgMRtuE7g-2" value="&lt;font style=&quot;font-size: 20px;&quot;&gt;Gold Layer&lt;/font&gt;" style="rounded=1;whiteSpace=wrap;html=1;strokeColor=#d79b00;fillColor=#ffcd28;gradientColor=#ffa500;" vertex="1" parent="1">
          <mxGeometry x="927.5" y="-2250" width="135" height="60" as="geometry" />
        </mxCell>
        <mxCell id="IdcQIrkCeU1JgMRtuE7g-3" value="&lt;font style=&quot;font-size: 16px;&quot;&gt;fact_sales&lt;/font&gt;" style="rounded=1;whiteSpace=wrap;html=1;strokeColor=#d79b00;fillColor=none;gradientColor=#ffa500;" vertex="1" parent="1">
          <mxGeometry x="928.75" y="-2110" width="132.5" height="40" as="geometry" />
        </mxCell>
        <mxCell id="IdcQIrkCeU1JgMRtuE7g-4" value="&lt;font style=&quot;font-size: 16px;&quot;&gt;dim_customers&lt;/font&gt;" style="rounded=1;whiteSpace=wrap;html=1;strokeColor=#d79b00;fillColor=none;gradientColor=#ffa500;" vertex="1" parent="1">
          <mxGeometry x="928.75" y="-1978" width="132.5" height="40" as="geometry" />
        </mxCell>
        <mxCell id="IdcQIrkCeU1JgMRtuE7g-5" value="&lt;font style=&quot;font-size: 16px;&quot;&gt;dim_products&lt;/font&gt;" style="rounded=1;whiteSpace=wrap;html=1;strokeColor=#d79b00;fillColor=none;gradientColor=#ffa500;" vertex="1" parent="1">
          <mxGeometry x="931.25" y="-1850" width="130" height="40" as="geometry" />
        </mxCell>
      </root>
    </mxGraphModel>
  </diagram>
</mxfile>
